<?xml version="1.0" encoding="UTF-8" standalone="no"?>
<!DOCTYPE svg PUBLIC "-//W3C//DTD SVG 1.1//EN" "http://www.w3.org/Graphics/SVG/1.1/DTD/svg11.dtd">
<svg width="100%" height="100%" viewBox="0 0 17 16" version="1.1" xmlns="http://www.w3.org/2000/svg" xmlns:xlink="http://www.w3.org/1999/xlink" xml:space="preserve" xmlns:serif="http://www.serif.com/" style="fill-rule:evenodd;clip-rule:evenodd;stroke-linejoin:round;stroke-miterlimit:2;">
    <g transform="matrix(1,0,0,1,-681,-257)">
        <g transform="matrix(0.04,0,0,0.04,681.5,257)">
            <rect id="MaskIcon" x="0" y="0" width="400" height="400" style="fill:none;"/>
            <g id="MaskIcon1" serif:id="MaskIcon">
                <g transform="matrix(8.33024,0,0,8.33024,-4165.03,-2140.82)">
                    <path d="M504.16,269.958C505.389,267.642 506.996,265.579 508.978,263.844C518.152,255.812 532.354,256.979 540.635,266.447C548.917,275.914 548.175,290.134 539.001,298.167C529.837,306.191 515.649,305.025 507.376,295.566C504.247,291.99 502.305,287.638 501.76,282.982C501.226,278.426 502.056,273.923 504.16,269.958ZM538.709,298.242C538.777,298.183 538.847,298.126 538.914,298.067C548.015,290.099 548.719,275.957 540.502,266.563C532.284,257.169 518.196,256.009 509.095,263.977C507.13,265.698 505.497,267.724 504.278,270.019C504.225,270.121 504.176,270.223 504.124,270.325C504.108,270.355 504.093,270.386 504.077,270.417C504.057,270.457 504.038,270.497 504.018,270.537C504.008,270.558 503.998,270.579 503.988,270.6C503.942,270.695 503.895,270.789 503.851,270.884C503.834,270.921 503.816,270.959 503.798,270.997C503.794,271.005 503.79,271.014 503.785,271.023C503.779,271.04 503.773,271.055 503.765,271.071C503.707,271.197 503.653,271.325 503.597,271.453C503.59,271.471 503.583,271.489 503.575,271.507C503.557,271.548 503.54,271.589 503.523,271.63C503.483,271.727 503.441,271.823 503.403,271.921C503.365,272.016 503.328,272.11 503.292,272.205C503.209,272.42 503.129,272.636 503.054,272.852C503.043,272.882 503.033,272.912 503.023,272.943C502.932,273.21 502.846,273.477 502.767,273.744C502.696,273.987 502.631,274.229 502.57,274.471C502.553,274.539 502.535,274.607 502.518,274.674C502.479,274.835 502.445,274.995 502.409,275.156C502.373,275.325 502.336,275.495 502.305,275.663C502.297,275.704 502.29,275.744 502.282,275.784C502.099,276.797 502.006,277.79 501.988,278.758C501.907,286.335 506.814,291.279 507.54,291.968C509.013,293.365 511.079,293.407 513.267,293.45C515.947,293.504 518.985,293.565 521.568,296.132C525.079,299.621 529.006,303.523 535.611,300.267L535.695,300.225C535.708,300.219 535.72,300.212 535.732,300.207C535.829,300.156 535.926,300.106 536.023,300.054C536.149,299.985 536.276,299.915 536.404,299.842C536.464,299.807 536.524,299.772 536.584,299.737C536.758,299.634 536.933,299.528 537.109,299.416C537.127,299.404 537.144,299.394 537.161,299.383C537.227,299.34 537.294,299.293 537.36,299.25C537.382,299.235 537.406,299.219 537.428,299.204C537.55,299.121 537.672,299.037 537.795,298.95L537.806,298.942C537.888,298.884 537.969,298.826 538.05,298.765C538.056,298.761 538.062,298.756 538.068,298.752C538.107,298.722 538.147,298.693 538.187,298.662C538.215,298.64 538.244,298.619 538.273,298.596C538.308,298.569 538.342,298.54 538.377,298.513C538.412,298.487 538.445,298.459 538.479,298.432C538.519,298.399 538.559,298.365 538.599,298.332C538.636,298.302 538.672,298.272 538.709,298.242ZM524.142,282.942C521.439,281.482 519.46,279.102 518.111,276.078L518.111,282.815C518.111,283.672 517.901,284.109 517.293,284.337C516.684,284.566 515.675,284.585 514.095,284.585C514.038,284.204 513.81,283.576 513.582,283.177C514.742,283.234 515.865,283.234 516.17,283.214C516.512,283.196 516.626,283.1 516.626,282.796L516.626,272.52L511.393,272.52L511.393,271.149L518.111,271.149L518.111,272.558C518.53,273.966 519.062,275.298 519.747,276.516C521.251,275.374 523.04,273.757 524.143,272.52L525.418,273.433C523.934,274.823 521.993,276.459 520.413,277.563C521.198,278.729 522.13,279.748 523.21,280.576L523.21,280.023L527.111,280.023C526.807,279.356 526.217,278.481 525.646,277.815L526.864,277.32C527.568,278.043 528.234,279.033 528.538,279.718L527.853,280.023L532.858,280.023C533.429,279.242 534.095,278.119 534.495,277.32L535.942,277.758C535.484,278.538 534.913,279.356 534.419,280.023L538.415,280.023L538.415,281.297L531.469,281.297L531.469,282.838L537.559,282.838L537.559,284.075L531.469,284.075L531.469,285.674L539.291,285.674L539.291,286.93L531.355,286.93C531.298,287.444 531.222,287.939 531.127,288.396L539.062,288.396L539.062,289.671L532.135,289.671C533.505,291.783 535.998,292.982 539.462,293.401C539.176,293.724 538.777,294.295 538.606,294.713C534.762,294.086 532.192,292.563 530.727,289.823C529.775,292.315 527.739,293.876 522.867,294.713C522.754,294.352 522.392,293.762 522.125,293.438C526.502,292.81 528.367,291.612 529.223,289.671L522.905,289.671L522.905,288.396L529.642,288.396C529.757,287.939 529.833,287.444 529.89,286.93L522.43,286.93L522.43,285.674L530.061,285.674L530.061,284.075L524.142,284.075L524.142,282.942ZM524.269,281.297C524.834,281.636 525.432,281.928 526.065,282.168C525.892,282.331 525.669,282.58 525.47,282.838L530.061,282.838L530.061,281.297L524.269,281.297ZM514.305,274.766L515.237,275.184C514.267,279.066 512.078,281.883 509.642,283.443C509.433,283.139 508.862,282.605 508.538,282.378C510.632,281.141 512.497,278.952 513.449,276.174L508.919,276.174L508.919,274.823L514.057,274.823L514.305,274.766ZM520.813,269.742L520.09,271.055C518.548,270.179 515.485,269.037 513.125,268.448L513.81,267.287C516.132,267.838 519.215,268.866 520.813,269.742Z"/>
                </g>
            </g>
        </g>
    </g>
</svg>
